<svg preserveAspectRatio="xMidYMid meet" data-bbox="19.945 19.799 159.999 160"
    viewBox="19.945 19.799 159.999 160" height="200" width="200" xmlns="http://www.w3.org/2000/svg"
    data-type="color" role="img" aria-label="100% Fresh Ingredients">
    <defs>
        <style>#comp-krouex4v svg [data-color="1"] {fill: #F7BCC7;}</style>
    </defs>
    <g>
        <path
            d="M157.623 62.23c-.37.252-.579.496-.628.732-.049.235.042.527.276.874l-.271.185c-.594-.96-.978-1.57-1.153-1.831-.191-.286-.623-.902-1.295-1.847l-.257-.355.271-.185c.273.408.556.66.848.759s.635.013 1.031-.258l3.15-2.146c.413-.281.692-.525.836-.73.144-.206.19-.417.138-.635-.051-.217-.197-.504-.435-.859l.283-.194c.524.743.998 1.324 1.423 1.742.425.419.874.737 1.348.959l-5.565 3.789z"
            fill="#F8ABB9" data-color="1"></path>
        <path
            d="M168.097 68.373a3.76 3.76 0 0 1-.63 2.007c-.399.603-.962 1.085-1.688 1.449-.745.372-1.497.539-2.256.504a3.979 3.979 0 0 1-2.095-.706c-.638-.435-1.147-1.042-1.53-1.821-.36-.732-.529-1.465-.508-2.2.021-.735.23-1.406.627-2.014.396-.608.963-1.095 1.698-1.462s1.482-.534 2.242-.498a3.99 3.99 0 0 1 2.091.698c.635.431 1.146 1.04 1.534 1.828.365.742.537 1.48.515 2.215zm-1.704-2.899c-.418-.118-.934-.114-1.551.013-.616.126-1.296.376-2.04.748-1.182.59-1.975 1.199-2.379 1.828-.404.629-.475 1.21-.212 1.745.167.338.459.563.879.674.42.111.94.106 1.558-.015.618-.123 1.299-.369 2.044-.742 1.182-.59 1.973-1.198 2.372-1.824.399-.626.467-1.207.204-1.741-.165-.339-.458-.568-.875-.686z"
            fill="#F8ABB9" data-color="1"></path>
        <path
            d="M172.302 80.01a3.76 3.76 0 0 1-.943 1.878c-.491.53-1.123.914-1.898 1.155-.794.245-1.563.289-2.307.13a3.975 3.975 0 0 1-1.954-1.038c-.559-.533-.966-1.215-1.218-2.046-.238-.78-.287-1.531-.149-2.254.139-.721.453-1.35.941-1.885.489-.534 1.125-.923 1.91-1.166.784-.243 1.549-.284 2.292-.126a3.996 3.996 0 0 1 1.951 1.03c.558.528.965 1.213 1.221 2.054.241.79.292 1.547.154 2.268zm-1.217-3.139c-.393-.185-.904-.265-1.532-.24-.628.025-1.34.16-2.134.406-1.261.39-2.142.862-2.64 1.417-.5.554-.662 1.117-.488 1.687.11.36.363.629.759.808.397.178.91.258 1.539.238.63-.02 1.341-.152 2.136-.398 1.261-.39 2.139-.862 2.633-1.415.494-.553.654-1.114.481-1.686-.11-.358-.361-.632-.754-.817z"
            fill="#F8ABB9" data-color="1"></path>
        <path
            d="m179.78 94.784-14.515-7.438.164-.321 14.515 7.438-.164.321zm-8.352.707c-.392.518-.979.827-1.762.925-.515.065-.982.013-1.401-.156a2.34 2.34 0 0 1-1.024-.79 2.604 2.604 0 0 1-.484-1.253c-.094-.759.055-1.4.446-1.924s.978-.835 1.761-.933a2.765 2.765 0 0 1 1.393.158c.423.168.768.434 1.032.796.264.362.427.782.486 1.26.093.759-.055 1.398-.447 1.917zm-2.264-2.636c-.742.093-1.292.258-1.65.492-.359.235-.517.524-.474.867.081.665.885.902 2.411.711.752-.095 1.308-.257 1.667-.486.358-.229.517-.516.475-.858-.084-.678-.893-.919-2.429-.726zm8.483-3.462c-.391.518-.979.826-1.762.925-.516.065-.983.013-1.401-.157a2.34 2.34 0 0 1-1.024-.789 2.604 2.604 0 0 1-.484-1.253c-.093-.758.055-1.4.446-1.924.391-.523.978-.835 1.761-.933a2.776 2.776 0 0 1 1.393.158c.424.168.768.434 1.033.797.264.362.426.782.485 1.26.093.759-.056 1.398-.447 1.916zm-2.264-2.636c-.743.093-1.293.258-1.651.492-.359.235-.517.524-.474.867.082.664.886.901 2.412.71.752-.095 1.308-.256 1.667-.486.359-.229.517-.516.475-.858-.084-.677-.894-.918-2.429-.725z"
            fill="#F8ABB9" data-color="1"></path>
        <path
            d="M173.696 118.314c-.479-.093-.87-.152-1.172-.178l.067-.355c1.191.017 2.062-.135 2.609-.456.547-.321.891-.852 1.031-1.592l.096-.509c.061-.32.079-.556.056-.709a.47.47 0 0 0-.243-.351c-.138-.079-.37-.151-.697-.213l-3.856-.744-.103.541c-.103.545.017.997.361 1.356.344.36.781.649 1.311.868l-.067.355c-.423-.113-.9-.221-1.43-.323l-.734-.142c-.52-.101-1.251-.21-2.191-.326l.067-.355c1.387.043 2.18-.454 2.377-1.493l.103-.54-3.52-.678c-.408-.079-.714-.093-.92-.042a.691.691 0 0 0-.463.39c-.103.21-.206.555-.308 1.037l-.336-.065c.27-1.259.464-2.197.581-2.814.098-.514.21-1.164.339-1.949l.078-.497.306.059c-.044.343-.051.601-.02.772a.544.544 0 0 0 .291.392c.162.089.437.172.825.247l7.59 1.462c.388.075.674.1.858.077a.54.54 0 0 0 .413-.256c.091-.148.179-.389.264-.725l.307.059a202.94 202.94 0 0 0-1 5.021c-.287 1.511-.475 2.589-.565 3.232a29.013 29.013 0 0 0-2.305-.556z"
            fill="#F8ABB9" data-color="1"></path>
        <path
            d="M170.02 127.187a1.5 1.5 0 0 1-1.075.014c-.364-.124-.626-.332-.785-.624-.159-.293-.181-.612-.064-.959.113-.337.29-.575.529-.714.238-.14.5-.161.785-.063.473.161.783.51.931 1.047a.861.861 0 0 0 .075-.173c.033-.1.05-.182.05-.248.068-.397-.051-.794-.356-1.191s-.664-.667-1.077-.808l-3.911-1.336c-.452-.154-.805-.15-1.056.012-.252.163-.46.487-.623.973l-.31-.106c.047-.139.089-.251.13-.337.37-1.001.611-1.67.724-2.007.091-.267.281-.883.571-1.845.016-.082.045-.183.085-.302l.31.105c-.12.357-.127.631-.021.822.105.191.36.355.763.493l4.648 1.588c.452.155.805.197 1.059.129.253-.068.439-.281.56-.638l.31.106c-.136.307-.255.61-.354.907-.297.883-.472 1.63-.524 2.242l-1.372-.469c.36.333.61.723.751 1.168.141.446.136.893-.014 1.339-.152.446-.397.738-.739.875z"
            fill="#F8ABB9" data-color="1"></path>
        <path
            d="m161.136 133.291-.207.213a3.749 3.749 0 0 1-1.064-1.767c-.192-.693-.113-1.403.235-2.128.48-.999 1.177-1.639 2.091-1.92.914-.281 1.988-.119 3.222.484 1.262.616 2.075 1.403 2.439 2.361.365.958.297 1.96-.207 3.005-.851 1.772-2.315 2.15-4.39 1.137l1.909-3.972c-.135-.078-.353-.19-.652-.335-.617-.302-1.173-.466-1.668-.493-.494-.026-.902.054-1.223.241-.321.186-.558.44-.713.76-.367.772-.293 1.576.228 2.414zm6.038-1.126c-.31-.424-.886-.877-1.728-1.359l-1.067 2.219c.729.379 1.374.603 1.935.674.56.07.92-.06 1.078-.39.165-.338.092-.72-.218-1.144z"
            fill="#F8ABB9" data-color="1"></path>
        <path
            d="M162.449 142.307c-.264.226-.497.38-.698.459a.5.5 0 0 0-.245.176c-.051.079-.055.174-.009.286.046.112.141.227.287.348l-.179.276c-.421-.327-1.175-.849-2.261-1.565l.179-.276c.625.299 1.218.443 1.778.43.56-.013 1.005-.272 1.334-.781.171-.263.237-.529.2-.798-.037-.268-.186-.488-.447-.659a1.277 1.277 0 0 0-.959-.201c-.344.061-.808.206-1.39.436l-.521.201c-.747.271-1.359.431-1.837.479-.477.048-.952-.083-1.421-.392a1.982 1.982 0 0 1-.799-1.005 2.552 2.552 0 0 1-.095-1.348c.088-.48.28-.948.576-1.403.313-.482.671-.834 1.075-1.055.321-.189.543-.33.666-.424.083-.07.104-.166.065-.286a1.111 1.111 0 0 0-.274-.396l.179-.276c.473.361 1.331.952 2.575 1.771l-.179.276c-1.714-.879-2.897-.814-3.551.194a1.166 1.166 0 0 0-.193.801c.036.279.21.523.523.729.243.16.496.249.758.265.262.016.521-.01.777-.079.256-.07.622-.184 1.099-.346a18.912 18.912 0 0 1 1.34-.403c.325-.08.665-.106 1.019-.079.354.027.693.147 1.014.359.557.366.854.874.891 1.525.038.65-.148 1.291-.557 1.922a3.802 3.802 0 0 1-.72.839z"
            fill="#F8ABB9" data-color="1"></path>
        <path
            d="M156.439 148.163c.419.996.226 1.958-.581 2.888-.533.615-1.062.913-1.586.897a1.758 1.758 0 0 1-.832-.222c-.29-.152-.63-.4-1.021-.744l-3.155-2.781c-.32-.283-.589-.422-.806-.419-.217.003-.448.147-.694.431l-.247-.217a75.77 75.77 0 0 0 1.401-1.519c.233-.268.661-.794 1.287-1.578l.246.217c-.205.236-.288.455-.249.657.039.201.219.443.54.727l3.647 3.215c.32.282.609.443.865.481.257.039.505-.081.744-.356.287-.331.401-.721.342-1.169-.06-.449-.284-.845-.675-1.19l-3.272-2.885c-.321-.283-.583-.43-.785-.442-.203-.012-.408.1-.613.336l-.246-.217a69.044 69.044 0 0 0 1.319-1.425 70.3 70.3 0 0 0 1.369-1.673l.247.217c-.24.276-.349.525-.326.745.022.221.193.473.514.757l6.672 5.882c.36.318.671.491.935.522.263.031.515-.093.754-.368l.247.217a10.4 10.4 0 0 0-.671.702c-.595.685-1.04 1.309-1.334 1.87l-4.036-3.556z"
            fill="#F8ABB9" data-color="1"></path>
        <path
            d="M145.156 163.94c.269-.232.446-.42.533-.566a.547.547 0 0 0 .039-.482c-.061-.176-.211-.424-.449-.74l-4.669-6.208c-.238-.317-.434-.529-.586-.636a.54.54 0 0 0-.471-.094c-.162.045-.39.167-.683.366l-.189-.251a45.381 45.381 0 0 0 1.903-1.395c.886-.677 1.53-1.19 1.934-1.537l.188.25c-.261.226-.436.413-.527.56a.548.548 0 0 0-.044.488c.061.176.21.423.449.74l4.67 6.208c.238.317.434.529.586.636a.538.538 0 0 0 .477.089c.166-.048.392-.168.677-.36l.188.251a45.53 45.53 0 0 0-1.989 1.462 44.351 44.351 0 0 0-1.847 1.47l-.19-.251z"
            fill="#F8ABB9" data-color="1"></path>
        <path
            d="M134.393 166.981a1.692 1.692 0 0 1-.703-.482c-.217-.236-.457-.587-.72-1.051l-2.075-3.671c-.21-.373-.422-.592-.632-.658-.21-.066-.474-.008-.789.174l-.162-.286a68.262 68.262 0 0 0 1.818-.972c.27-.155.847-.511 1.728-1.066l.162.287c-.271.156-.421.335-.449.538-.029.203.063.491.274.864l2.398 4.244c.211.373.431.62.662.741.229.121.502.091.818-.09.37-.213.6-.546.689-1.001s.008-.906-.244-1.352l-2.144-3.793c-.211-.373-.41-.599-.599-.679-.188-.078-.417-.04-.688.116l-.162-.288c.851-.44 1.42-.743 1.709-.909.271-.156.883-.532 1.837-1.128l.162.286c-.325.187-.511.387-.558.6-.046.213.036.507.247.881l2.43 4.298c.236.418.472.686.706.805.235.118.514.084.839-.102l.162.286c-.304.139-.592.286-.863.441-.803.461-1.426.904-1.868 1.327l-.694-1.228c.072 1.079-.429 1.927-1.502 2.544-.686.395-1.282.503-1.789.324z"
            fill="#F8ABB9" data-color="1"></path>
        <path
            d="M123.982 170.485c.186.079.326.24.421.484.09.234.124.496.102.785.195-.189.344-.374.447-.555.103-.181.172-.385.207-.612-.439-.243-.77-.652-.992-1.229-.297-.771-.257-1.455.12-2.051.377-.598 1.001-1.067 1.872-1.408l.261-.103c.307-.389.405-.726.297-1.008-.12-.313-.375-.393-.761-.241l-1.583.62c-.852.334-1.594.442-2.224.323-.631-.118-1.072-.504-1.324-1.157a2.312 2.312 0 0 1-.051-1.539c.158-.528.51-1.04 1.054-1.534.545-.494 1.283-.923 2.212-1.288.939-.368 1.738-.543 2.396-.526.658.017 1.075.25 1.248.698.117.304.086.628-.093.973s-.508.69-.988 1.036l-.221-.183c.235-.429.28-.835.132-1.215-.158-.41-.463-.652-.915-.728-.453-.075-1.003.014-1.652.268-.677.265-1.174.618-1.49 1.056-.316.438-.378.906-.186 1.404.124.322.341.53.65.622s.758.023 1.348-.208l.9-.353c.619-.243 1.144-.328 1.574-.254.429.073.727.324.892.753.139.361.138.732-.004 1.114-.143.382-.42.805-.832 1.268.732-.185 1.374-.167 1.927.054.553.221.96.668 1.22 1.342.297.771.257 1.454-.12 2.052-.377.597-1.001 1.067-1.872 1.408-.968.38-1.797.44-2.488.183a2.27 2.27 0 0 1-.44.897c-.21.262-.456.448-.737.559-.29.114-.554.118-.789.014-.235-.105-.406-.293-.511-.567-.105-.273-.112-.514-.021-.725a.785.785 0 0 1 .443-.435.748.748 0 0 1 .571.006zm1.842-3.612c-.02.368.115.927.405 1.679.29.751.565 1.255.826 1.513.261.257.527.332.798.226.271-.106.416-.343.436-.71.02-.367-.115-.927-.406-1.678-.289-.752-.565-1.256-.825-1.513-.261-.257-.527-.333-.798-.227-.27.107-.416.344-.436.71z"
            fill="#F8ABB9" data-color="1"></path>
        <path
            d="M114.453 174.213a1.517 1.517 0 0 1-.586-.907c-.09-.377-.056-.711.104-1.003.16-.293.417-.482.77-.567.344-.084.638-.062.882.067.245.128.403.341.474.636.117.488-.01.939-.381 1.353a.775.775 0 0 0 .186-.029.797.797 0 0 0 .235-.089c.369-.155.638-.468.808-.941.171-.472.204-.921.101-1.35l-.97-4.045c-.113-.468-.304-.766-.576-.893-.271-.128-.654-.132-1.149-.012l-.077-.32c.142-.034.259-.058.352-.07a91.029 91.029 0 0 0 2.071-.456 92.69 92.69 0 0 0 1.851-.5c.079-.03.178-.059.299-.089l.077.32c-.363.089-.597.229-.7.422-.103.192-.105.497-.005.914l1.154 4.809c.112.468.265.792.457.971.193.18.47.224.834.136l.077.32c-.33.049-.647.11-.95.183-.898.219-1.619.47-2.159.753l-.34-1.42c-.087.484-.28.906-.579 1.264a2.083 2.083 0 0 1-1.13.704c-.455.112-.831.057-1.13-.161z"
            fill="#F8ABB9" data-color="1"></path>
        <path
            d="m104.572 169.897-.289-.063a3.762 3.762 0 0 1 .916-1.849c.48-.534 1.116-.845 1.911-.934 1.094-.123 2.003.13 2.726.76s1.16 1.631 1.312 3.005c.155 1.405-.072 2.518-.681 3.34-.609.821-1.487 1.297-2.633 1.426-1.941.217-3.039-.828-3.294-3.138l4.351-.489a13.04 13.04 0 0 0-.065-.735c-.077-.687-.235-1.249-.477-1.685-.242-.437-.526-.743-.853-.916a1.721 1.721 0 0 0-1.018-.201c-.847.096-1.482.589-1.906 1.479zm4.164 4.55c.191-.491.264-1.223.219-2.198l-2.431.274c.07.824.225 1.494.465 2.01.24.516.541.753.902.713.371-.042.653-.309.845-.799z"
            fill="#F8ABB9" data-color="1"></path>
        <path
            d="M94.172 168.176c-.138-.224-.394-.343-.768-.355l.011-.33c.321.042.642.068.964.079.924.031 1.684-.017 2.28-.144l-.044 1.35c.383-.93 1.074-1.378 2.071-1.345.975.033 1.74.417 2.292 1.153.553.736.8 1.825.743 3.269-.03.92-.204 1.692-.52 2.316-.316.623-.742 1.086-1.277 1.388-.534.302-1.139.441-1.814.419-.758-.025-1.328-.243-1.709-.654l-.088 2.669c-.015.481.049.834.192 1.058.143.225.396.344.76.355l-.011.33a10.659 10.659 0 0 0-.964-.079c-.903-.03-1.664.018-2.281.144l.345-10.564c.017-.482-.044-.834-.182-1.059zm2.929.255c-.273.242-.441.577-.508 1.004l-.179 5.494c.248.364.621.555 1.119.571.55.019.986-.287 1.309-.915.322-.629.498-1.576.529-2.842.053-1.276-.039-2.201-.275-2.775-.236-.573-.593-.868-1.07-.883a1.29 1.29 0 0 0-.925.346z"
            fill="#F8ABB9" data-color="1"></path>
        <path
            d="M86.852 178.4c-.219-.251-.299-.563-.241-.936s.228-.645.513-.817c.285-.173.642-.224 1.073-.157.431.068.756.228.974.48.219.251.299.564.242.936-.058.372-.228.645-.514.817-.284.173-.642.225-1.073.157-.431-.068-.755-.228-.974-.48zm1.415-10.292c.065-.424.037-.729-.087-.911-.124-.184-.366-.304-.725-.361l.051-.325c1.019.203 1.699.33 2.038.384.318.05 1.035.142 2.149.275l-.051.326c-.37-.059-.638-.019-.807.119-.168.137-.285.419-.351.843l-.758 4.888c-.074.475-.055.833.055 1.073s.349.389.72.447l-.051.326a10.664 10.664 0 0 0-.947-.197c-.913-.143-1.674-.189-2.282-.137l1.046-6.75z"
            fill="#F8ABB9" data-color="1"></path>
        <path
            d="m78.725 166.689-.246-.166a3.725 3.725 0 0 1 1.528-1.378c.64-.318 1.347-.371 2.118-.158 1.062.292 1.815.865 2.256 1.719.442.854.482 1.948.121 3.281-.369 1.364-.986 2.315-1.852 2.852-.867.537-1.857.654-2.969.348-1.885-.518-2.523-1.899-1.916-4.141l4.223 1.161c.051-.148.12-.385.207-.707.181-.667.239-1.248.173-1.743-.065-.495-.217-.884-.458-1.168a1.743 1.743 0 0 0-.874-.566c-.82-.226-1.591-.005-2.311.666zm2.208 5.775c.357-.385.693-1.038 1.007-1.961l-2.36-.649c-.236.792-.337 1.473-.302 2.042.035.569.228.901.578.998.362.098.72-.045 1.077-.43z"
            fill="#F8ABB9" data-color="1"></path>
        <path
            d="M67.318 167.891a1.714 1.714 0 0 1-.039-.856c.057-.318.191-.721.402-1.211l1.667-3.876c.169-.394.216-.695.143-.905-.074-.21-.278-.387-.612-.532l.13-.303c.936.455 1.557.749 1.862.883.286.125.914.376 1.883.755l-.13.302c-.287-.124-.519-.137-.697-.039-.178.099-.352.346-.521.739l-1.928 4.481c-.169.394-.233.721-.191.978.042.258.229.46.564.605.39.171.792.156 1.208-.046.415-.201.723-.536.926-1.006l1.723-4.006c.169-.394.229-.69.178-.89-.05-.198-.219-.36-.504-.486l.129-.302c.861.421 1.444.7 1.748.832.286.125.952.393 1.998.805l-.131.303c-.342-.15-.613-.18-.811-.089-.197.09-.381.333-.55.727l-1.953 4.538c-.19.442-.262.793-.215 1.053.047.259.242.465.585.615l-.13.303a10.604 10.604 0 0 0-.869-.431c-.848-.371-1.572-.608-2.173-.711l.558-1.297c-.813.706-1.786.812-2.921.316-.723-.316-1.167-.733-1.329-1.249z"
            fill="#F8ABB9" data-color="1"></path>
        <path
            d="m60.773 164.678-1.58-.946.159-.271 1.58.947 3.216-5.454c.159-.27.225-.489.198-.658-.028-.168-.143-.314-.35-.438-.383-.23-.846-.142-1.388.265l-.157-.258c.886-.723 1.771-.821 2.655-.291.59.353.946.774 1.069 1.261.076.302.064.614-.037.938-.1.323-.295.733-.588 1.228l-2.691 4.563 1.125.675-.16.27-1.125-.674-1.051 1.782c-.741-.443-1.469-.685-2.183-.723l1.308-2.216z"
            fill="#F8ABB9" data-color="1"></path>
        <path
            d="M53.729 159.873c-.206-.281-.342-.526-.408-.734a.517.517 0 0 0-.158-.258c-.075-.057-.169-.066-.281-.028-.114.038-.235.127-.365.265l-.261-.199c.353-.401.921-1.124 1.703-2.168l.261.199c-.339.608-.52 1.195-.546 1.759-.026.564.201 1.029.682 1.396.248.189.507.274.775.256.268-.019.496-.153.684-.404.213-.284.3-.601.263-.951-.037-.35-.149-.826-.335-1.427l-.164-.538c-.217-.769-.333-1.396-.348-1.879-.015-.484.146-.952.485-1.402a1.969 1.969 0 0 1 1.05-.736 2.496 2.496 0 0 1 1.34-.003c.469.12.919.346 1.35.674.456.348.78.732.971 1.153.165.335.29.568.375.698.064.088.157.116.279.084.121-.032.258-.115.41-.248l.261.199c-.39.451-1.033 1.273-1.929 2.467l-.261-.199c.986-1.663 1.003-2.858.05-3.584a1.14 1.14 0 0 0-.779-.249c-.279.017-.532.175-.758.475-.174.234-.28.482-.314.745-.034.263-.025.525.025.787.051.262.14.638.268 1.129.146.585.249 1.043.306 1.375s.06.675.008 1.031a2.151 2.151 0 0 1-.424.995c-.401.535-.924.799-1.57.792-.647-.008-1.268-.238-1.864-.692a3.772 3.772 0 0 1-.781-.78z"
            fill="#F8ABB9" data-color="1"></path>
        <path
            d="M42.147 137.377c.371-.251.581-.493.631-.729.05-.235-.041-.527-.273-.874l.272-.184a79.02 79.02 0 0 0 1.146 1.835c.19.287.62.904 1.288 1.852l.256.357-.272.184c-.272-.409-.553-.663-.845-.762-.291-.099-.635-.015-1.031.253l-3.158 2.134c-.414.281-.693.523-.838.728a.762.762 0 0 0-.141.635c.051.218.195.505.432.861l-.285.192c-.52-.744-.992-1.327-1.416-1.747a4.824 4.824 0 0 0-1.345-.964l5.579-3.771z"
            fill="#F8ABB9" data-color="1"></path>
        <path
            d="M31.698 131.203a3.75 3.75 0 0 1 .638-2.005c.401-.601.965-1.082 1.693-1.442.746-.369 1.499-.535 2.257-.497.76.038 1.457.276 2.093.714.636.437 1.144 1.046 1.523 1.826.358.733.524 1.467.501 2.202a3.801 3.801 0 0 1-.634 2.011c-.399.606-.967 1.091-1.703 1.456-.737.365-1.484.528-2.244.49a3.997 3.997 0 0 1-2.09-.706c-.633-.433-1.141-1.045-1.527-1.834-.362-.741-.531-1.48-.507-2.215zm1.694 2.905c.417.12.934.118 1.551-.006.616-.125 1.297-.372 2.043-.741 1.184-.586 1.979-1.192 2.384-1.82.407-.627.479-1.208.218-1.743-.165-.339-.457-.564-.876-.677-.42-.113-.94-.109-1.558.01-.619.12-1.301.364-2.047.734-1.184.586-1.977 1.192-2.378 1.816-.401.625-.472 1.205-.21 1.741.165.338.456.566.873.686z"
            fill="#F8ABB9" data-color="1"></path>
        <path
            d="M27.532 119.542c.141-.721.458-1.346.951-1.874s1.127-.91 1.903-1.146c.794-.243 1.564-.284 2.307-.123.743.161 1.393.51 1.95 1.045.557.536.961 1.219 1.211 2.051.235.782.282 1.533.141 2.255a3.81 3.81 0 0 1-.949 1.883c-.491.532-1.128.918-1.915 1.158-.784.24-1.549.279-2.292.118a3.99 3.99 0 0 1-1.948-1.037c-.556-.53-.96-1.216-1.213-2.058-.238-.794-.287-1.551-.146-2.272zm1.207 3.143c.392.187.903.268 1.53.246.629-.022 1.34-.155 2.136-.398 1.262-.385 2.143-.854 2.645-1.407.501-.552.666-1.114.495-1.686-.108-.36-.361-.63-.757-.81-.396-.18-.908-.261-1.539-.244-.63.018-1.342.148-2.138.39-1.262.386-2.141.854-2.638 1.405-.496.551-.659 1.112-.487 1.683.11.361.359.634.753.821z"
            fill="#F8ABB9" data-color="1"></path>
        <path
            d="m20.11 104.746 14.487 7.492-.165.321-14.487-7.492.165-.321zm2.114 5.398c.393-.517.981-.824 1.765-.919.516-.062.983-.008 1.401.162.418.171.758.435 1.02.793.263.359.423.777.48 1.255.091.759-.06 1.399-.452 1.922-.392.522-.981.831-1.764.927-.506.061-.97.007-1.393-.163a2.308 2.308 0 0 1-1.03-.8 2.665 2.665 0 0 1-.481-1.263c-.091-.759.061-1.397.454-1.914zm2.254 2.645c.743-.091 1.294-.253 1.653-.486.359-.233.518-.522.477-.865-.079-.665-.882-.905-2.408-.72-.753.092-1.309.252-1.669.48-.36.229-.52.514-.479.857.081.676.89.92 2.426.734zm3.987-8.719c.393-.516.982-.823 1.766-.918.515-.063.983-.009 1.4.162.419.17.759.435 1.021.794.262.358.422.776.48 1.254.091.759-.06 1.4-.453 1.922-.392.522-.981.831-1.764.926-.505.062-.97.008-1.393-.163a2.308 2.308 0 0 1-1.03-.8 2.653 2.653 0 0 1-.48-1.261c-.091-.761.06-1.399.453-1.916zm2.255 2.644c.742-.091 1.293-.252 1.653-.486.359-.234.517-.521.477-.865-.08-.665-.882-.905-2.409-.719-.753.091-1.308.251-1.669.48-.36.228-.519.514-.478.856.08.677.889.921 2.426.734z"
            fill="#F8ABB9" data-color="1"></path>
        <path
            d="M25.134 86.626c.485.059.879.091 1.181.097l-.043.358c-1.19.066-2.047.277-2.572.635-.524.358-.831.911-.921 1.66l-.062.514c-.038.322-.041.56-.007.711a.472.472 0 0 0 .266.333c.144.07.381.125.711.166l3.898.476.066-.545c.066-.551-.085-.994-.453-1.329a3.793 3.793 0 0 0-1.366-.776l.043-.359c.429.084.912.159 1.448.224l.742.091c.526.064 1.262.123 2.207.174l-.043.359c-1.387.052-2.144.603-2.27 1.653l-.065.546 3.558.435c.412.05.719.043.921-.022a.695.695 0 0 0 .436-.422c.088-.215.167-.567.236-1.055l.34.042a132.543 132.543 0 0 0-.389 2.848c-.062.52-.131 1.176-.205 1.968l-.044.501-.309-.038c.02-.346.01-.603-.033-.771a.542.542 0 0 0-.316-.371c-.168-.079-.448-.142-.841-.19l-7.671-.937c-.392-.048-.679-.054-.862-.018a.539.539 0 0 0-.395.284c-.081.153-.153.401-.215.741l-.309-.038c.166-1.118.385-2.811.658-5.077.184-1.528.298-2.616.345-3.264.865.18 1.644.312 2.335.396z"
            fill="#F8ABB9" data-color="1"></path>
        <path
            d="M28.198 77.542c.333-.16.69-.189 1.071-.088.372.1.647.289.826.57.178.281.222.598.129.952-.09.344-.249.595-.478.75-.229.157-.489.196-.78.118-.482-.128-.816-.456-1-.982a.957.957 0 0 0-.063.178.814.814 0 0 0-.033.251c-.041.401.105.789.436 1.164.331.376.708.619 1.13.731l3.991 1.064c.462.123.813.095 1.054-.085.241-.18.426-.517.555-1.013l.317.084a3.548 3.548 0 0 1-.107.346 87.922 87.922 0 0 0-.587 2.053c-.072.273-.22.9-.444 1.879a2.746 2.746 0 0 1-.065.308l-.316-.084c.096-.364.084-.638-.034-.822-.119-.183-.384-.329-.796-.438l-4.745-1.265c-.462-.123-.817-.141-1.064-.056-.248.086-.42.311-.515.675l-.316-.084c.115-.316.212-.625.292-.929.236-.901.359-1.659.37-2.273l1.401.373a2.645 2.645 0 0 1-.828-1.114 2.101 2.101 0 0 1-.076-1.336c.117-.457.343-.766.675-.927z"
            fill="#F8ABB9" data-color="1"></path>
        <path
            d="m36.659 70.819.191-.228a3.748 3.748 0 0 1 1.18 1.69c.238.679.207 1.392-.092 2.139-.411 1.029-1.064 1.716-1.957 2.058-.893.343-1.975.256-3.247-.261-1.301-.53-2.165-1.259-2.594-2.189-.428-.93-.427-1.935.004-3.013.73-1.826 2.165-2.303 4.303-1.434l-1.638 4.093c.141.069.365.165.674.291.636.258 1.201.384 1.697.376.496-.007.898-.114 1.205-.323.307-.207.527-.477.659-.806.32-.797.192-1.595-.385-2.393zm-5.949 1.535c.338.403.943.815 1.816 1.237l.914-2.286c-.753-.328-1.411-.509-1.975-.541-.564-.032-.914.123-1.05.462-.141.35-.042.727.295 1.128z"
            fill="#F8ABB9" data-color="1"></path>
        <path
            d="M34.732 61.924c.249-.243.47-.412.666-.506a.512.512 0 0 0 .232-.193c.046-.082.042-.177-.011-.285a.948.948 0 0 0-.309-.328l.16-.288c.443.298 1.229.766 2.362 1.406l-.16.288c-.644-.256-1.244-.357-1.803-.307-.558.051-.985.341-1.279.871-.152.274-.2.544-.146.808.055.265.219.474.49.628.309.174.632.219.971.134.339-.084.791-.261 1.357-.529l.507-.236c.727-.322 1.326-.523 1.8-.604.474-.08.955.017 1.444.293.399.225.688.541.866.948.179.406.241.852.186 1.338a3.845 3.845 0 0 1-.479 1.44c-.28.502-.613.878-1.002 1.127a7.964 7.964 0 0 0-.636.469c-.078.077-.093.173-.045.289.049.118.148.243.3.377l-.16.288c-.497-.328-1.392-.858-2.689-1.59l.16-.288c1.769.76 2.945.613 3.529-.436a1.17 1.17 0 0 0 .139-.813c-.055-.276-.245-.507-.571-.691a1.536 1.536 0 0 0-.775-.212 2.365 2.365 0 0 0-.77.132c-.25.087-.609.226-1.073.42a18.71 18.71 0 0 1-1.31.493 3.179 3.179 0 0 1-1.012.149 2.108 2.108 0 0 1-1.036-.288c-.58-.327-.911-.814-.992-1.46s.06-1.299.426-1.956c.194-.348.414-.643.663-.888z"
            fill="#F8ABB9" data-color="1"></path>
        <path
            d="M40.326 55.677c-.486-.964-.359-1.938.384-2.922.49-.651.997-.985 1.52-1.005.264-.021.546.033.845.165.3.13.656.354 1.07.671l3.337 2.556c.339.259.616.38.832.362.216-.019.438-.178.664-.478l.261.199a75.647 75.647 0 0 0-1.294 1.612c-.214.284-.606.838-1.176 1.664l-.261-.2c.188-.25.256-.474.203-.672-.052-.198-.248-.427-.588-.686l-3.858-2.956c-.339-.259-.638-.399-.896-.42-.259-.02-.498.116-.718.408a1.42 1.42 0 0 0-.261 1.19c.089.443.341.823.754 1.14l3.461 2.651c.339.26.611.389.814.387.204-.002.399-.128.588-.378l.261.2a58.59 58.59 0 0 0-1.218 1.513 70.29 70.29 0 0 0-1.251 1.763l-.261-.199c.22-.291.311-.547.274-.766-.037-.219-.225-.459-.564-.718l-7.059-5.408c-.38-.291-.702-.443-.967-.455-.265-.013-.508.128-.728.419l-.26-.2c.226-.247.433-.497.622-.746.546-.725.947-1.378 1.202-1.959l4.268 3.268z"
            fill="#F8ABB9" data-color="1"></path>
        <path
            d="M50.515 39.146c-.252.251-.417.451-.493.601a.544.544 0 0 0-.005.484c.073.173.239.408.498.707l5.082 5.869c.26.3.469.498.628.594a.54.54 0 0 0 .476.061c.158-.056.377-.194.657-.412l.205.237c-.444.348-1.045.856-1.804 1.523a48.065 48.065 0 0 0-1.824 1.667l-.205-.237c.245-.242.407-.441.488-.595a.548.548 0 0 0 .011-.489c-.073-.172-.239-.408-.499-.707l-5.081-5.87c-.26-.3-.469-.497-.628-.593a.534.534 0 0 0-.482-.056c-.162.06-.378.196-.651.406l-.205-.236c.42-.328 1.048-.86 1.885-1.596a45.028 45.028 0 0 0 1.742-1.595l.205.237z"
            fill="#F8ABB9" data-color="1"></path>
        <path
            d="M61.051 35.364c.256.067.5.211.733.432.233.222.496.555.789.999l2.318 3.519c.236.359.46.562.675.613.214.052.473-.024.776-.227l.181.275c-.888.545-1.471.909-1.748 1.095-.26.174-.811.568-1.653 1.182l-.181-.274c.26-.174.397-.363.411-.567.015-.205-.095-.486-.331-.844l-2.681-4.069c-.235-.357-.472-.589-.709-.694-.237-.105-.507-.056-.81.147-.355.238-.562.587-.62 1.046-.058.46.053.904.335 1.332l2.396 3.637c.236.358.45.569.643.635.193.065.419.012.678-.162l.181.275c-.819.498-1.367.84-1.644 1.025-.259.174-.845.59-1.757 1.251l-.181-.275c.311-.208.483-.42.515-.637.032-.216-.07-.503-.306-.861l-2.716-4.122c-.264-.401-.517-.652-.758-.754-.242-.102-.519-.049-.83.159l-.181-.274c.294-.16.572-.325.831-.5.77-.515 1.362-.999 1.774-1.452l.775 1.178c-.145-1.072.297-1.952 1.327-2.642.661-.441 1.249-.589 1.768-.446z"
            fill="#F8ABB9" data-color="1"></path>
        <path
            d="M71.203 31.162c-.191-.066-.342-.218-.452-.454a1.804 1.804 0 0 1-.155-.777 2.538 2.538 0 0 0-.408.583 1.748 1.748 0 0 0-.165.624c.455.213.812.599 1.072 1.159.347.749.354 1.434.017 2.055-.337.622-.928 1.132-1.774 1.532l-.254.12c-.281.41-.356.752-.228 1.028.141.303.399.366.776.188l1.537-.726c.828-.391 1.56-.549 2.197-.474.637.075 1.103.431 1.399 1.066.224.483.275.994.153 1.532-.123.537-.44 1.072-.95 1.602s-1.218 1.008-2.121 1.434c-.912.432-1.698.66-2.356.688-.658.027-1.089-.177-1.291-.613-.136-.293-.127-.619.028-.976.155-.356.462-.723.917-1.1l.232.167c-.206.445-.223.852-.051 1.222.185.398.505.619.962.664.456.044 1-.082 1.63-.38.658-.311 1.13-.696 1.416-1.155.286-.458.317-.93.092-1.413-.145-.313-.375-.505-.69-.576-.314-.071-.758.029-1.332.299l-.874.413c-.602.284-1.12.405-1.553.36s-.747-.275-.941-.691a1.52 1.52 0 0 1-.069-1.112c.117-.39.365-.832.744-1.323-.716.235-1.359.26-1.926.077s-1.002-.602-1.306-1.256c-.348-.748-.354-1.434-.018-2.055s.928-1.132 1.775-1.531c.94-.445 1.763-.562 2.469-.351.06-.341.186-.649.379-.925.192-.276.425-.479.699-.607.282-.134.544-.156.785-.067.242.088.424.265.548.53.124.266.146.506.069.722a.786.786 0 0 1-.413.463.732.732 0 0 1-.569.034zm-1.596 3.728c-.005-.367-.177-.916-.516-1.646-.339-.73-.648-1.214-.925-1.454-.278-.238-.548-.296-.811-.172-.264.124-.393.37-.388.738.004.367.176.916.515 1.647s.647 1.215.924 1.453c.278.24.548.297.811.173.265-.125.394-.371.39-.739z"
            fill="#F8ABB9" data-color="1"></path>
        <path
            d="M80.443 26.791c.313.196.528.485.647.864.116.37.104.706-.035 1.008-.139.303-.382.509-.729.619-.337.108-.631.105-.884-.006-.253-.112-.425-.312-.516-.602-.15-.479-.055-.938.288-1.376a.8.8 0 0 0-.183.042.859.859 0 0 0-.228.105c-.358.18-.605.511-.742.994-.137.484-.14.934-.009 1.354l1.244 3.968c.143.459.355.743.634.852.279.109.661.086 1.147-.069l.098.314a3.522 3.522 0 0 1-.347.094 87.125 87.125 0 0 0-2.034.598 79.61 79.61 0 0 0-1.814.627 2.438 2.438 0 0 1-.292.109l-.098-.314c.356-.114.579-.269.669-.469.091-.199.072-.503-.056-.912l-1.478-4.717c-.144-.459-.318-.772-.522-.937-.205-.166-.485-.191-.842-.078l-.098-.314c.326-.071.638-.154.935-.249.882-.281 1.582-.58 2.103-.9l.436 1.392c.053-.489.217-.922.491-1.3a2.078 2.078 0 0 1 1.079-.78c.445-.142.824-.114 1.136.083z"
            fill="#F8ABB9" data-color="1"></path>
        <path
            d="m90.587 30.411.293.043a3.775 3.775 0 0 1-.787 1.909c-.442.565-1.056.92-1.843 1.065-1.083.199-2.007.009-2.771-.57-.765-.577-1.269-1.546-1.515-2.906-.251-1.39-.101-2.517.451-3.379.552-.862 1.394-1.398 2.529-1.605 1.921-.353 3.088.614 3.501 2.901l-4.307.791c.017.156.056.399.116.729.123.68.319 1.229.59 1.648.271.419.576.703.915.854.338.15.681.194 1.029.13.836-.155 1.437-.691 1.799-1.61zm-4.466-4.247c-.157.502-.18 1.238-.068 2.207l2.406-.442c-.127-.818-.327-1.475-.602-1.973-.275-.497-.591-.713-.948-.648-.368.068-.631.353-.788.856z"
            fill="#F8ABB9" data-color="1"></path>
        <path
            d="M101.095 31.406c.153.215.416.315.79.302l.011.33a9.753 9.753 0 0 0-.967-.012c-.924.033-1.679.134-2.265.301l-.048-1.35c-.32.955-.978 1.45-1.974 1.486-.976.036-1.764-.295-2.366-.991-.601-.695-.923-1.766-.964-3.21-.033-.921.087-1.703.361-2.347.273-.644.666-1.135 1.179-1.474.514-.337 1.107-.519 1.781-.543.758-.027 1.341.15 1.75.534l-.095-2.668c-.017-.481-.105-.829-.262-1.044-.159-.214-.42-.315-.783-.302l-.012-.329c.333.019.656.023.967.012.903-.033 1.658-.134 2.265-.302l.377 10.563c.017.481.101.83.255 1.044zm-2.941-.052c.255-.261.402-.606.438-1.037l-.195-5.493c-.272-.346-.657-.511-1.156-.492-.55.02-.964.355-1.243 1.003-.278.649-.389 1.607-.334 2.872.035 1.277.19 2.193.464 2.749.275.555.65.825 1.128.808a1.28 1.28 0 0 0 .898-.41z"
            fill="#F8ABB9" data-color="1"></path>
        <path
            d="M106.976 31.066c-.037.427.013.728.15.903.136.175.385.279.747.31l-.028.328a64.279 64.279 0 0 0-2.059-.242 82.22 82.22 0 0 0-2.163-.126l.028-.328c.373.032.638-.026.798-.175.158-.148.256-.437.293-.865l.423-4.929c.042-.479-.001-.835-.127-1.067-.126-.231-.376-.364-.748-.396l.028-.328c.329.06.649.104.959.13.921.081 1.682.074 2.285-.021l-.586 6.806zm.711-10.366c.235.236.336.542.304.918-.033.375-.184.659-.456.851-.273.192-.625.268-1.06.231-.434-.038-.77-.174-1.005-.411-.235-.236-.336-.541-.304-.917.032-.376.184-.659.456-.851.272-.192.626-.268 1.06-.231s.769.175 1.005.41z"
            fill="#F8ABB9" data-color="1"></path>
        <path
            d="m116.597 31.824.257.149a3.73 3.73 0 0 1-1.431 1.48c-.618.36-1.319.462-2.103.303-1.079-.217-1.868-.737-2.367-1.559-.498-.822-.612-1.91-.342-3.266.275-1.386.828-2.377 1.657-2.973.828-.596 1.807-.779 2.938-.551 1.915.388 2.645 1.72 2.192 4l-4.293-.868c-.041.151-.094.392-.159.721-.135.677-.153 1.261-.055 1.751s.278.867.537 1.134c.26.266.563.435.909.504.834.168 1.588-.107 2.26-.825zm-2.592-5.61c-.331.409-.621 1.084-.873 2.026l2.399.485c.181-.806.236-1.493.164-2.058-.074-.564-.288-.883-.644-.955-.368-.074-.716.094-1.046.502z"
            fill="#F8ABB9" data-color="1"></path>
        <path
            d="M127.893 29.84c.1.248.132.532.097.852-.036.321-.142.732-.319 1.235l-1.402 3.982c-.143.405-.169.709-.081.913.088.204.304.367.646.489l-.109.311a66.397 66.397 0 0 0-1.918-.752 67.96 67.96 0 0 0-1.93-.624l.11-.311c.294.105.526.102.697-.009.171-.111.328-.369.47-.773l1.62-4.604c.142-.404.184-.734.125-.989-.06-.254-.26-.443-.602-.565-.402-.144-.803-.101-1.203.128s-.685.585-.856 1.068l-1.448 4.115c-.143.405-.182.704-.118.899.063.195.242.346.536.451l-.11.311a56.022 56.022 0 0 0-1.799-.711 77.49 77.49 0 0 0-2.048-.665l.11-.311c.352.126.624.137.815.033.191-.104.358-.358.5-.763l1.641-4.662c.159-.454.207-.809.143-1.066-.065-.256-.273-.447-.625-.573l.11-.311c.303.142.601.265.895.37.872.311 1.61.498 2.217.559l-.469 1.332c.764-.76 1.728-.932 2.893-.515.743.268 1.214.652 1.412 1.156z"
            fill="#F8ABB9" data-color="1"></path>
        <path
            d="m134.644 32.598 1.641.836-.141.281-1.641-.837-2.84 5.663c-.141.281-.192.504-.153.67.039.166.164.304.378.412.398.203.855.083 1.367-.359l.174.247c-.836.783-1.712.941-2.629.473-.612-.312-.996-.707-1.152-1.185a1.707 1.707 0 0 1-.027-.937c.078-.33.246-.752.504-1.266l2.375-4.737-1.168-.595.141-.281 1.168.596.927-1.851c.77.392 1.512.583 2.227.572l-1.151 2.298z"
            fill="#F8ABB9" data-color="1"></path>
        <path
            d="M142 36.907c.224.266.376.502.456.704a.506.506 0 0 0 .175.247c.079.052.172.054.283.009a.972.972 0 0 0 .345-.289l.274.18c-.325.424-.841 1.184-1.552 2.28l-.273-.18c.296-.63.438-1.228.426-1.793-.013-.565-.271-1.014-.775-1.345-.261-.172-.524-.24-.791-.202-.266.037-.484.187-.655.451-.193.298-.259.62-.198.967.061.346.205.813.432 1.401l.199.525c.269.753.427 1.369.475 1.851.048.482-.082.959-.389 1.433-.25.386-.582.654-.997.806a2.501 2.501 0 0 1-1.337.095 3.758 3.758 0 0 1-1.392-.579c-.479-.314-.827-.676-1.047-1.083a7.816 7.816 0 0 0-.421-.672c-.07-.083-.165-.105-.284-.065-.119.041-.25.132-.392.276l-.274-.18c.358-.477.943-1.341 1.756-2.595l.274.18c-.872 1.727-.807 2.92.193 3.579.252.166.517.231.795.195.278-.036.519-.212.723-.527.159-.245.247-.5.263-.764a2.443 2.443 0 0 0-.079-.784 19.71 19.71 0 0 0-.343-1.107 19.126 19.126 0 0 1-.399-1.351 3.294 3.294 0 0 1-.079-1.027c.027-.358.146-.698.356-1.023.364-.561.868-.86 1.513-.898.645-.037 1.281.15 1.906.562.332.215.608.457.833.723z"
            fill="#F8ABB9" data-color="1"></path>
        <path fill="#F8ABB9"
            d="M34.413 78.336c0 .723-.581 1.309-1.298 1.309a1.304 1.304 0 0 1-1.298-1.309c0-.723.581-1.309 1.298-1.309.717 0 1.298.586 1.298 1.309z"
            data-color="1"></path>
        <path fill="#F8ABB9"
            d="M114.911 168.64c0 .723-.581 1.309-1.298 1.309a1.304 1.304 0 0 1-1.298-1.309c0-.723.581-1.309 1.298-1.309.717 0 1.298.586 1.298 1.309z"
            data-color="1"></path>
        <path fill="#F8ABB9"
            d="M150.616 48.889c0 .723-.581 1.309-1.298 1.309a1.304 1.304 0 0 1-1.298-1.309c0-.723.581-1.309 1.298-1.309.717 0 1.298.586 1.298 1.309z"
            data-color="1"></path>
        <path fill="#F8ABB9"
            d="M48.695 149.009c0 .723-.581 1.309-1.298 1.309a1.304 1.304 0 0 1-1.298-1.309c0-.723.581-1.309 1.298-1.309.717 0 1.298.586 1.298 1.309z"
            data-color="1"></path>
    </g>
</svg>